# xmcd CD database file
#
# Track frame offsets:
#	150
#	16760
#	34088
#	50430
#	63602
#	75093
#	90466
#	106376
#	119016
#	128599
#	142352
#
# Disc length: 2087 seconds
#
# Revision: 2
# Processed by: cddbd v1.5.2PL0 Copyright (c) Steve Scherf et al.
# Submitted via: CDex 1.70beta2
#
DISCID=8d08250b
DTITLE=Carla Bruni - No Promises (2006)
DYEAR=2006
DGENRE=Folk-Jazz
TTITLE0=Those Dancing Days Are Gone
TTITLE1=Before The World Was Made
TTITLE2=Lady Weeping At The Crossroads
TTITLE3=I Felt My Life With Both My Hands
TTITLE4=Promises Like Pie-Crust
TTITLE5=Autumn
TTITLE6=If You Were Coming In The Fall
TTITLE7=I Went To Heaven
TTITLE8=Afternoon
TTITLE9=Ballade At Thirty-Five
TTITLE10=At Last The Secret Is Out
EXTD=YEAR: 2006
EXTT0=
EXTT1=
EXTT2=
EXTT3=
EXTT4=
EXTT5=
EXTT6=
EXTT7=
EXTT8=
EXTT9=
EXTT10=
PLAYORDER=
